HIERARCHY
ROOT Hips
{
	OFFSET -3.958830 18.904000 13.208200
	CHANNELS 6 Xposition Yposition Zposition Zrotation Yrotation Xrotation 
	JOINT LHipJoint
	{
		OFFSET 0.000000 0.000000 0.000000
		CHANNELS 3 Zrotation Yrotation Xrotation
		JOINT LeftUpLeg
		{
			OFFSET 1.800000 -1.400000 0.085000
			CHANNELS 3 Zrotation Yrotation Xrotation
			JOINT LeftLeg
			{
				OFFSET 2.215000 -6.000000 0.000000
				CHANNELS 3 Zrotation Yrotation Xrotation
				JOINT LeftFoot
				{
					OFFSET 2.500000 -6.900000 0.000000
					CHANNELS 3 Zrotation Yrotation Xrotation
					JOINT LeftToeBase
					{
						OFFSET 0.200000 -0.500000 1.950000
						CHANNELS 3 Zrotation Yrotation Xrotation
						End Site
						{
							OFFSET 0.000000 0.000000 0.000000
						}
					}
				}
			}
		}
	}
	JOINT RHipJoint
	{
		OFFSET 0.000000 0.000000 0.000000
		CHANNELS 3 Zrotation Yrotation Xrotation
		JOINT RightUpLeg
		{
			OFFSET -1.800000 -1.400000 0.085000
			CHANNELS 3 Zrotation Yrotation Xrotation
			JOINT RightLeg
			{
				OFFSET -2.215000 -6.000000 0.000000
				CHANNELS 3 Zrotation Yrotation Xrotation
				JOINT RightFoot
				{
					OFFSET -2.500000 -6.900000 0.000000
					CHANNELS 3 Zrotation Yrotation Xrotation
					JOINT RightToeBase
					{
						OFFSET -0.200000 -0.500000 1.950000
						CHANNELS 3 Zrotation Yrotation Xrotation
						End Site
						{
							OFFSET 0.000000 0.000000 0.000000
						}
					}
				}
			}
		}
	}
	JOINT LowerBack
	{
		OFFSET 0.000000 0.000000 0.000000
		CHANNELS 3 Zrotation Yrotation Xrotation
		JOINT Spine
		{
			OFFSET -0.087000 1.940000 -0.288900
			CHANNELS 3 Zrotation Yrotation Xrotation
			JOINT Spine1
			{
				OFFSET 0.000000 1.950000 0.060000
				CHANNELS 3 Zrotation Yrotation Xrotation
				JOINT Neck
				{
					OFFSET 0.000000 0.000000 0.000000
					CHANNELS 3 Zrotation Yrotation Xrotation
					JOINT Neck1
					{
						OFFSET 0.000000 1.600000 0.340000
						CHANNELS 3 Zrotation Yrotation Xrotation
						JOINT Head
						{
							OFFSET 0.000000 1.667000 -0.240000
							CHANNELS 3 Zrotation Yrotation Xrotation
							End Site
							{
								OFFSET 0.000000 0.000000 0.000000
							}
						}
					}
				}
				JOINT LeftShoulder
				{
					OFFSET 0.000000 0.000000 0.000000
					CHANNELS 3 Zrotation Yrotation Xrotation
					JOINT LeftArm
					{
						OFFSET 2.700000 1.550000 -0.730000
						CHANNELS 3 Zrotation Yrotation Xrotation
						JOINT LeftForeArm
						{
							OFFSET 5.450000 0.000000 0.000000
							CHANNELS 3 Zrotation Yrotation Xrotation
							JOINT LeftHand
							{
								OFFSET 3.450000 0.000000 0.000000
								CHANNELS 3 Zrotation Yrotation Xrotation
								JOINT LeftHandIndex1
								{
									OFFSET 0.750000 0.000000 0.000000
									CHANNELS 3 Zrotation Yrotation Xrotation
									End Site
									{
										OFFSET 0.000000 0.000000 0.000000
									}
								}
							}
						}
					}
				}
				JOINT RightShoulder
				{
					OFFSET 0.000000 0.000000 0.000000
					CHANNELS 3 Zrotation Yrotation Xrotation
					JOINT RightArm
					{
						OFFSET -2.700000 1.550000 -0.730000
						CHANNELS 3 Zrotation Yrotation Xrotation
						JOINT RightForeArm
						{
							OFFSET -5.450000 0.000000 0.000000
							CHANNELS 3 Zrotation Yrotation Xrotation
							JOINT RightHand
							{
								OFFSET -3.450000 0.000000 0.000000
								CHANNELS 3 Zrotation Yrotation Xrotation
								JOINT RightHandIndex1
								{
									OFFSET -0.750000 0.000000 0.000000
									CHANNELS 3 Zrotation Yrotation Xrotation
									End Site
									{
										OFFSET 0.000000 0.000000 0.000000
									}
								}
							}
						}
					}
				}
			}
		}
	}
}
MOTION
Frames: 9
Frame Time: 0.016667
1.776530 16.676360 -3.181140 2.040322 -15.809435 -0.088433 -15.169117 12.814910 2.260714 11.569616 -1.783807 -12.498020 -10.502825 12.573677 33.239807 -0.534729 8.107123 1.940772 0.130260 -0.192300 -0.347340 18.530545 -8.557713 4.871752 -19.758088 7.886245 -40.754634 32.771522 -20.909997 38.446085 -1.379198 -9.187149 1.592891 0.080130 0.883970 0.043470 -4.029649 -3.352864 -8.041066 12.144434 -6.192340 14.371541 -6.393546 -4.081972 7.855297 0.756367 -11.250911 -11.498045 -29.078601 15.926154 37.186197 -0.498670 2.179460 -11.729420 -12.494660 -6.339146 4.674799 -40.917078 -2.185651 -5.594195 -17.526050 -39.628986 2.391802 -3.848770 2.503963 0.938230 0.331780 -0.318550 0.388360 11.208476 13.178172 5.957099 36.919615 10.151495 -5.203854 55.127842 47.247691 19.538686 1.552373 -1.282486 -0.708490 0.886540 0.443520 -0.199290 
1.774700 16.646880 -3.193510 2.021756 -16.002443 -0.637523 -15.172755 12.710931 2.299855 12.341388 -1.793498 -12.391579 -11.505714 13.326294 33.933554 -0.435516 8.377375 1.837573 0.156740 -0.147950 -0.325380 18.540278 -8.431616 4.998292 -21.406022 7.773192 -41.045055 35.204553 -21.890711 38.112399 -1.494216 -9.424545 1.522747 0.081490 0.849830 0.045470 -4.051255 -3.349373 -8.183756 12.191463 -6.353419 15.725151 -6.678114 -4.126637 7.231241 0.865453 -11.278572 -11.668086 -29.539003 16.422670 37.918967 -0.329540 2.273770 -12.917280 -13.097895 -6.843252 4.773555 -41.225675 -2.005519 -5.672697 -14.693406 -37.372932 1.298471 -3.814804 2.457085 0.952990 0.296680 -0.271340 0.395770 11.622625 13.738110 5.972054 38.054091 10.832726 -5.132790 56.182043 46.593682 19.555368 1.589775 -1.262608 -0.678420 0.890370 0.418850 -0.186980 
1.787950 16.590700 -3.223270 1.715823 -16.677003 -2.009537 -15.167192 12.529180 2.326128 13.627221 -1.721648 -11.980460 -12.591541 14.592296 35.681860 -0.293554 8.912815 1.651882 0.165470 -0.134810 -0.301190 18.571640 -8.193255 5.306640 -24.759141 7.716969 -41.854115 40.471656 -23.954691 37.469490 -1.708576 -9.913755 1.397606 0.067800 0.817790 0.034090 -4.130318 -3.296695 -8.459765 12.820761 -6.746937 18.932567 -7.405305 -4.171093 5.826822 1.234589 -11.211253 -12.220945 -30.220080 17.469949 39.888345 -0.447690 2.487640 -14.084510 -14.395585 -8.338273 5.175989 -41.770926 -1.445416 -5.637349 -9.474058 -32.917934 -0.405102 -3.780140 2.333798 0.999770 0.253380 -0.218430 0.397830 12.256657 15.284218 6.181545 40.094085 12.199709 -5.107935 58.281660 46.035034 19.909754 1.635971 -1.207629 -0.672920 0.920860 0.405970 -0.187490 
1.783530 16.550090 -3.270150 1.004068 -17.754854 -3.688225 -15.181098 12.390697 2.391224 15.782767 -1.378535 -11.563146 -13.680283 16.167370 37.628390 -0.168587 9.516618 1.406899 0.226890 -0.060480 -0.221310 18.574494 -7.980552 5.533759 -27.240777 8.295286 -42.234708 44.837095 -25.325068 36.901385 -1.901972 -10.194704 1.327310 0.088660 0.716570 0.016690 -4.140807 -3.254999 -8.705936 13.328205 -7.033477 22.872189 -7.788377 -4.033957 4.705998 1.721390 -11.037441 -12.855001 -30.976242 18.798886 42.676514 -1.601710 3.085830 -17.077450 -16.482123 -10.442523 5.722666 -41.433824 -0.763328 -5.151756 -4.399507 -27.386236 -1.586092 -3.709064 2.216316 1.081230 0.173800 -0.126900 0.387320 13.468607 17.549038 6.383566 41.593153 14.221709 -5.154140 60.269689 46.773686 20.879226 1.677164 -1.145055 -0.657370 0.942350 0.368740 -0.214780 
1.787770 16.525690 -3.312850 0.269463 -18.794278 -5.054890 -15.205277 12.316795 2.434769 17.374608 -0.942695 -11.447716 -13.897256 17.475497 39.925280 -0.049752 10.032596 1.185900 0.277520 0.007630 -0.157580 18.565307 -7.804030 5.702376 -29.751896 8.724471 -42.130821 49.011495 -25.634800 34.957722 -2.006283 -10.185800 1.318939 0.104040 0.617320 0.012090 -4.117777 -3.259606 -8.866292 14.179027 -7.088709 26.216806 -7.847088 -3.626393 3.992281 2.262693 -10.900806 -13.669307 -32.346079 20.000609 45.516415 -2.827060 2.980110 -19.789920 -18.942534 -12.810447 6.352008 -41.366859 -0.692195 -4.027505 0.850836 -21.027533 -2.250778 -3.656051 2.141193 1.140040 0.097750 -0.040530 0.366320 14.962421 20.237649 6.807002 41.206381 15.802801 -5.234069 64.666051 49.156334 23.948827 1.730819 -1.098833 -0.623930 0.948390 0.346410 -0.228610 
1.778580 16.504440 -3.349040 0.160693 -19.317739 -5.903758 -15.208002 12.277551 2.380526 17.581650 -0.505856 -11.859066 -12.760254 17.956090 42.201998 0.027863 10.288345 1.069200 0.331050 0.071870 -0.119440 18.580099 -7.724536 5.871789 -32.620433 8.791419 -42.014273 52.194702 -25.000605 32.460048 -2.026058 -10.040655 1.333799 0.122800 0.562770 0.033220 -4.150742 -3.158209 -8.927712 14.684000 -6.755270 28.074075 -7.943031 -3.081638 4.097354 2.366334 -10.898019 -14.283250 -33.088408 20.578955 46.568755 -2.621040 2.363960 -20.982560 -20.172754 -14.661557 6.957847 -41.357546 -0.904908 -2.745254 4.203205 -15.479365 -2.254773 -3.641462 2.161556 1.147870 0.057330 0.006260 0.362200 16.060620 22.488556 7.187783 41.336878 17.606065 -5.036533 68.287295 53.144917 27.852780 1.783580 -1.097443 -0.573760 0.924570 0.324070 -0.219410 
1.750780 16.492320 -3.379790 -0.577168 -19.808593 -6.017592 -15.189769 12.255002 2.309095 18.261520 0.173178 -12.474581 -11.382971 18.096348 43.591493 0.026696 10.411758 1.011042 0.330610 0.063370 -0.101860 18.607713 -7.722652 5.981427 -34.444584 9.197603 -41.780516 54.044306 -23.809044 30.093930 -1.980363 -9.801605 1.394007 0.121270 0.544730 0.027650 -4.233610 -2.956668 -8.936973 16.071512 -6.356284 28.712690 -8.201142 -2.376520 4.889500 2.687291 -10.868150 -14.792911 -33.018796 20.431807 47.602059 -3.464580 1.813970 -21.265360 -20.607891 -15.983983 7.502331 -41.286697 -0.848365 -1.677139 6.140838 -10.794030 -1.986539 -3.664940 2.141268 1.159090 0.047470 0.011570 0.347210 15.869755 24.334315 7.605529 41.994936 19.834624 -4.337284 73.841726 58.228402 33.786293 1.858500 -1.035542 -0.578040 0.930530 0.329430 -0.230510 
1.701790 16.486670 -3.401160 -1.316472 -19.429406 -5.765072 -15.129824 12.245245 2.188150 18.376868 0.701607 -13.537436 -9.025290 17.509338 44.959769 -0.015832 10.348356 1.017960 0.325940 0.051800 -0.098990 18.664385 -7.861210 6.034057 -35.650701 9.265090 -40.996064 54.727253 -22.366901 27.734681 -1.902857 -9.525386 1.459319 0.119370 0.542180 0.039360 -4.400290 -2.587823 -8.876696 17.584815 -6.016813 27.993643 -8.917655 -1.963536 6.219349 2.960663 -10.688524 -14.948358 -31.480221 19.907817 48.600343 -4.151410 1.702860 -20.825230 -20.160304 -16.536521 8.012468 -40.637990 -0.209351 -1.180878 6.778085 -8.550690 -1.758950 -3.689656 2.150851 1.153710 0.058340 0.009240 0.345990 14.805311 25.206776 7.678235 44.025035 23.331205 -2.304582 79.686246 64.250034 41.161920 2.014124 -0.871183 -0.578490 0.915370 0.328630 -0.234640 
1.633000 16.505010 -3.416140 -1.491160 -18.868133 -5.735124 -15.086135 12.360406 2.065033 17.841033 1.205114 -14.181462 -6.585450 16.602017 45.809593 -0.043093 10.168078 1.077323 0.272750 -0.000460 -0.135450 18.679307 -8.076847 5.999835 -36.120157 9.276742 -39.798378 52.993598 -21.229493 26.890774 -1.786805 -9.309251 1.510685 0.080030 0.573170 0.056460 -4.449741 -2.357524 -8.798386 17.834786 -5.169046 26.957377 -8.970812 -1.487783 7.666821 3.228499 -10.374911 -15.361642 -29.647740 19.200693 49.856687 -4.782440 1.768410 -19.334070 -19.238698 -17.271038 8.801473 -39.891557 0.759900 -0.830449 7.644117 -6.923797 -1.565830 -3.743104 2.163746 1.116130 0.095080 -0.015170 0.329310 13.386312 26.374410 7.933274 45.366641 27.011768 0.100914 86.013352 70.522985 49.511123 2.331381 -0.375768 -0.569070 0.895330 0.359400 -0.221920 
